<?xml version="1.0" encoding="UTF-8" standalone="no"?>
<!-- Created with Inkscape (http://www.inkscape.org/) -->

<svg
   xmlns:dc="http://purl.org/dc/elements/1.1/"
   xmlns:cc="http://creativecommons.org/ns#"
   xmlns:rdf="http://www.w3.org/1999/02/22-rdf-syntax-ns#"
   xmlns:svg="http://www.w3.org/2000/svg"
   xmlns="http://www.w3.org/2000/svg"
   xmlns:xlink="http://www.w3.org/1999/xlink"
   xmlns:sodipodi="http://sodipodi.sourceforge.net/DTD/sodipodi-0.dtd"
   xmlns:inkscape="http://www.inkscape.org/namespaces/inkscape"
   width="2.5959945in"
   height="2.0181205in"
   viewBox="0 0 65.938256 51.260259"
   version="1.1"
   id="svg6920"
   inkscape:version="0.92.1 r15371"
   sodipodi:docname="ornament.svg"
   inkscape:export-filename="/tmp/circle-sticker.png"
   inkscape:export-xdpi="599.99994"
   inkscape:export-ydpi="599.99994">
  <defs
     id="defs6914">
    <linearGradient
       inkscape:collect="always"
       xlink:href="#linearGradient4689"
       id="linearGradient7854"
       gradientUnits="userSpaceOnUse"
       gradientTransform="matrix(0.14883897,0,0,0.15027592,4.0547886,29.542673)"
       x1="-86.856689"
       y1="-115.56387"
       x2="52.763859"
       y2="144.01498" />
    <linearGradient
       id="linearGradient4689">
      <stop
         id="stop4691"
         offset="0"
         style="stop-color:#5a9fd4;stop-opacity:1;" />
      <stop
         id="stop4693"
         offset="1"
         style="stop-color:#306998;stop-opacity:1;" />
    </linearGradient>
    <linearGradient
       inkscape:collect="always"
       xlink:href="#linearGradient4689"
       id="linearGradient8074"
       gradientUnits="userSpaceOnUse"
       gradientTransform="matrix(0.14883897,0,0,0.15027592,4.0547886,29.542673)"
       x1="-86.856689"
       y1="-115.56387"
       x2="52.763859"
       y2="144.01498" />
    <linearGradient
       inkscape:collect="always"
       xlink:href="#linearGradient4689"
       id="linearGradient8076"
       gradientUnits="userSpaceOnUse"
       gradientTransform="matrix(0.14883897,0,0,0.15027592,4.0547886,29.542673)"
       x1="-86.856689"
       y1="-115.56387"
       x2="52.763859"
       y2="144.01498" />
  </defs>
  <sodipodi:namedview
     id="base"
     pagecolor="#fcfcfc"
     bordercolor="#666666"
     borderopacity="1.0"
     inkscape:pageopacity="0"
     inkscape:pageshadow="2"
     inkscape:zoom="1.171676"
     inkscape:cx="80.012088"
     inkscape:cy="51.222629"
     inkscape:document-units="in"
     inkscape:current-layer="g8192-4-3"
     showgrid="false"
     fit-margin-top="0"
     fit-margin-left="0"
     fit-margin-right="0"
     fit-margin-bottom="0"
     inkscape:window-width="1920"
     inkscape:window-height="1009"
     inkscape:window-x="0"
     inkscape:window-y="34"
     inkscape:window-maximized="1"
     inkscape:measure-start="173.256,59.3167"
     inkscape:measure-end="217.21,59.3167"
     units="in"
     inkscape:pagecheckerboard="true"
     inkscape:snap-global="true"
     inkscape:snap-object-midpoints="true" />
  <metadata
     id="metadata6917">
    <rdf:RDF>
      <cc:Work
         rdf:about="">
        <dc:format>image/svg+xml</dc:format>
        <dc:type
           rdf:resource="http://purl.org/dc/dcmitype/StillImage" />
        <dc:title></dc:title>
      </cc:Work>
    </rdf:RDF>
  </metadata>
  <g
     inkscape:label="Layer 1"
     inkscape:groupmode="layer"
     id="layer1"
     transform="translate(-32.160552,-91.16746)">
    <g
       id="g8192-4-3"
       transform="matrix(1.0955007,0,0,1.0955007,-784.48788,-248.40155)"
       inkscape:export-filename="/tmp/logos-for-twitter.png"
       inkscape:export-xdpi="300.043"
       inkscape:export-ydpi="300.043">
      <rect
         style="color:#000000;clip-rule:nonzero;display:inline;overflow:visible;visibility:visible;opacity:1;isolation:auto;mix-blend-mode:normal;color-interpolation:sRGB;color-interpolation-filters:linearRGB;solid-color:#000000;solid-opacity:1;vector-effect:none;fill:#fcfcfc;fill-opacity:1;fill-rule:nonzero;stroke:none;stroke-width:0.33591944;stroke-linecap:butt;stroke-linejoin:miter;stroke-miterlimit:4;stroke-dasharray:none;stroke-dashoffset:0;stroke-opacity:1;marker:none;marker-start:none;marker-mid:none;marker-end:none;color-rendering:auto;image-rendering:auto;shape-rendering:auto;text-rendering:auto;enable-background:accumulate"
         id="rect11334"
         width="60.190063"
         height="46.791626"
         x="745.45679"
         y="309.96695"
         ry="0" />
      <g
         id="use13406-2-2"
         inkscape:transform-center-x="0.81974001"
         inkscape:transform-center-y="-1.714597"
         transform="matrix(-0.76679765,0.73087738,-0.73087738,-0.76679765,1510.1954,34.572412)">
        <ellipse
           ry="1.849257"
           rx="2.0100617"
           cy="279.16974"
           cx="689.078"
           id="use7838"
           style="color:#000000;clip-rule:nonzero;display:inline;overflow:visible;visibility:visible;opacity:1;isolation:auto;mix-blend-mode:normal;color-interpolation:sRGB;color-interpolation-filters:linearRGB;solid-color:#000000;solid-opacity:1;vector-effect:none;fill:#ffd43b;fill-opacity:1;fill-rule:nonzero;stroke:#4482b4;stroke-width:0.0429756;stroke-linecap:butt;stroke-linejoin:miter;stroke-miterlimit:4;stroke-dasharray:none;stroke-dashoffset:0;stroke-opacity:1;marker:none;marker-start:none;marker-mid:none;marker-end:none;color-rendering:auto;image-rendering:auto;shape-rendering:auto;text-rendering:auto;enable-background:accumulate"
           transform="rotate(-1.9840008)" />
        <g
           transform="matrix(-0.9961282,0.08791246,0.08791246,0.9961282,704.74992,216.96001)"
           id="g7842">
          <path
             id="path7840"
             d="m 15.3234,33.004502 c -3.303492,0.07446 -6.1437556,1.504007 -9.2216051,3.637225 -3.0778495,2.133218 1.1469662,4.696443 2.2243048,4.724767 0.4064221,0.07588 7.4213833,-2.193711 7.5353703,-2.114185 -7.3702624,3.235119 -17.438782,5.601128 -17.5429341,11.95308 -0.056078,3.420038 5.6067196,5.019668 8.3397073,5.163067 2.7329877,0.143399 5.8908108,-0.376697 8.0717988,-1.744073 0,0 -5.6723856,-0.571553 -6.6108579,-1.705741 C 4.2006539,48.182914 20.758645,45.864429 22.535439,39.558198 22.959329,38.053721 22.33965,36.180141 21.266061,35.044121 19.827575,33.521985 17.41718,32.957309 15.3234,33.004502 Z m -5.8055665,3.154757 c 0.7327735,0 1.3311835,0.60818 1.3311835,1.35599 0,0.74515 -0.59841,1.34772 -1.3311835,1.34772 -0.7354039,0 -1.331185,-0.60257 -1.331185,-1.34772 0,-0.74781 0.5957811,-1.35599 1.331185,-1.35599 z"
             style="fill:url(#linearGradient8074);fill-opacity:1;stroke-width:0.26458332"
             inkscape:connector-curvature="0"
             sodipodi:nodetypes="azccszcsaaasssss" />
        </g>
        <ellipse
           ry="1.849257"
           rx="2.0100617"
           cy="308.6362"
           cx="698.05829"
           id="use7844"
           style="color:#000000;clip-rule:nonzero;display:inline;overflow:visible;visibility:visible;opacity:1;isolation:auto;mix-blend-mode:normal;color-interpolation:sRGB;color-interpolation-filters:linearRGB;solid-color:#000000;solid-opacity:1;vector-effect:none;fill:#ffd43b;fill-opacity:1;fill-rule:nonzero;stroke:#4482b4;stroke-width:0.0429756;stroke-linecap:butt;stroke-linejoin:miter;stroke-miterlimit:4;stroke-dasharray:none;stroke-dashoffset:0;stroke-opacity:1;marker:none;marker-start:none;marker-mid:none;marker-end:none;color-rendering:auto;image-rendering:auto;shape-rendering:auto;text-rendering:auto;enable-background:accumulate"
           transform="rotate(-1.9840008)" />
        <g
           transform="matrix(0.42192968,-0.90662856,-0.90662856,-0.42192968,738.18801,309.07018)"
           id="use7846">
          <path
             id="path7862"
             d="m 15.3234,33.004502 c -3.303492,0.07446 -6.1437556,1.504007 -9.2216051,3.637225 -3.0778495,2.133218 1.1469662,4.696443 2.2243048,4.724767 0.4064221,0.07588 7.4213833,-2.193711 7.5353703,-2.114185 -7.3702624,3.235119 -17.438782,5.601128 -17.5429341,11.95308 -0.056078,3.420038 5.6067196,5.019668 8.3397073,5.163067 2.7329877,0.143399 5.8908108,-0.376697 8.0717988,-1.744073 0,0 -5.6723856,-0.571553 -6.6108579,-1.705741 C 4.2006539,48.182914 20.758645,45.864429 22.535439,39.558198 22.959329,38.053721 22.33965,36.180141 21.266061,35.044121 19.827575,33.521985 17.41718,32.957309 15.3234,33.004502 Z m -5.8055665,3.154757 c 0.7327735,0 1.3311835,0.60818 1.3311835,1.35599 0,0.74515 -0.59841,1.34772 -1.3311835,1.34772 -0.7354039,0 -1.331185,-0.60257 -1.331185,-1.34772 0,-0.74781 0.5957811,-1.35599 1.331185,-1.35599 z"
             style="fill:url(#linearGradient8076);fill-opacity:1;stroke-width:0.26458332"
             inkscape:connector-curvature="0"
             sodipodi:nodetypes="azccszcsaaasssss" />
        </g>
        <ellipse
           ry="1.849257"
           rx="2.0100617"
           cy="301.38651"
           cx="667.98376"
           id="use7848"
           style="color:#000000;clip-rule:nonzero;display:inline;overflow:visible;visibility:visible;opacity:1;isolation:auto;mix-blend-mode:normal;color-interpolation:sRGB;color-interpolation-filters:linearRGB;solid-color:#000000;solid-opacity:1;vector-effect:none;fill:#ffd43b;fill-opacity:1;fill-rule:nonzero;stroke:#4482b4;stroke-width:0.0429756;stroke-linecap:butt;stroke-linejoin:miter;stroke-miterlimit:4;stroke-dasharray:none;stroke-dashoffset:0;stroke-opacity:1;marker:none;marker-start:none;marker-mid:none;marker-end:none;color-rendering:auto;image-rendering:auto;shape-rendering:auto;text-rendering:auto;enable-background:accumulate"
           transform="rotate(-1.9840008)" />
        <g
           transform="matrix(0.57419852,0.8187161,0.8187161,-0.57419852,641.69928,291.97337)"
           id="use7850">
          <path
             id="path7856"
             d="m 15.3234,33.004502 c -3.303492,0.07446 -6.1437556,1.504007 -9.2216051,3.637225 -3.0778495,2.133218 1.1469662,4.696443 2.2243048,4.724767 0.4064221,0.07588 7.4213833,-2.193711 7.5353703,-2.114185 -7.3702624,3.235119 -17.438782,5.601128 -17.5429341,11.95308 -0.056078,3.420038 5.6067196,5.019668 8.3397073,5.163067 2.7329877,0.143399 5.8908108,-0.376697 8.0717988,-1.744073 0,0 -5.6723856,-0.571553 -6.6108579,-1.705741 C 4.2006539,48.182914 20.758645,45.864429 22.535439,39.558198 22.959329,38.053721 22.33965,36.180141 21.266061,35.044121 19.827575,33.521985 17.41718,32.957309 15.3234,33.004502 Z m -5.8055665,3.154757 c 0.7327735,0 1.3311835,0.60818 1.3311835,1.35599 0,0.74515 -0.59841,1.34772 -1.3311835,1.34772 -0.7354039,0 -1.331185,-0.60257 -1.331185,-1.34772 0,-0.74781 0.5957811,-1.35599 1.331185,-1.35599 z"
             style="fill:url(#linearGradient7854);fill-opacity:1;stroke-width:0.26458332"
             inkscape:connector-curvature="0"
             sodipodi:nodetypes="azccszcsaaasssss" />
        </g>
      </g>
    </g>
  </g>
</svg>
